<mxfile host="app.diagrams.net" agent="Mozilla/5.0 (Windows NT 10.0; Win64; x64) AppleWebKit/537.36 (KHTML, like Gecko) Chrome/131.0.0.0 Safari/537.36 Edg/131.0.0.0" version="24.9.0" pages="4">
  <diagram name="Pagina-1" id="CgUn75_gU8NVCHaWXQh1">
    <mxGraphModel dx="1426" dy="755" grid="1" gridSize="10" guides="1" tooltips="1" connect="1" arrows="1" fold="1" page="1" pageScale="1" pageWidth="1169" pageHeight="827" math="0" shadow="0">
      <root>
        <mxCell id="0" />
        <mxCell id="1" parent="0" />
        <mxCell id="egIiD5W8o0YkJKsrxG2l-1" value="bob" style="swimlane;fontStyle=0;childLayout=stackLayout;horizontal=1;startSize=26;fillColor=none;horizontalStack=0;resizeParent=1;resizeParentMax=0;resizeLast=0;collapsible=1;marginBottom=0;whiteSpace=wrap;html=1;" vertex="1" parent="1">
          <mxGeometry x="340" y="30" width="140" height="52" as="geometry" />
        </mxCell>
        <mxCell id="egIiD5W8o0YkJKsrxG2l-9" style="edgeStyle=orthogonalEdgeStyle;rounded=0;orthogonalLoop=1;jettySize=auto;html=1;" edge="1" parent="1" source="egIiD5W8o0YkJKsrxG2l-5" target="egIiD5W8o0YkJKsrxG2l-1">
          <mxGeometry relative="1" as="geometry" />
        </mxCell>
        <mxCell id="egIiD5W8o0YkJKsrxG2l-5" value="shot" style="swimlane;fontStyle=0;childLayout=stackLayout;horizontal=1;startSize=26;fillColor=none;horizontalStack=0;resizeParent=1;resizeParentMax=0;resizeLast=0;collapsible=1;marginBottom=0;whiteSpace=wrap;html=1;" vertex="1" parent="1">
          <mxGeometry x="340" y="150" width="140" height="158" as="geometry">
            <mxRectangle x="340" y="210" width="60" height="30" as="alternateBounds" />
          </mxGeometry>
        </mxCell>
        <mxCell id="egIiD5W8o0YkJKsrxG2l-6" value="+ state" style="text;strokeColor=none;fillColor=none;align=left;verticalAlign=top;spacingLeft=4;spacingRight=4;overflow=hidden;rotatable=0;points=[[0,0.5],[1,0.5]];portConstraint=eastwest;whiteSpace=wrap;html=1;" vertex="1" parent="egIiD5W8o0YkJKsrxG2l-5">
          <mxGeometry y="26" width="140" height="26" as="geometry" />
        </mxCell>
        <mxCell id="egIiD5W8o0YkJKsrxG2l-7" value="+ num_frames" style="text;strokeColor=none;fillColor=none;align=left;verticalAlign=top;spacingLeft=4;spacingRight=4;overflow=hidden;rotatable=0;points=[[0,0.5],[1,0.5]];portConstraint=eastwest;whiteSpace=wrap;html=1;" vertex="1" parent="egIiD5W8o0YkJKsrxG2l-5">
          <mxGeometry y="52" width="140" height="28" as="geometry" />
        </mxCell>
        <mxCell id="egIiD5W8o0YkJKsrxG2l-8" value="+ anim_duration" style="text;strokeColor=none;fillColor=none;align=left;verticalAlign=top;spacingLeft=4;spacingRight=4;overflow=hidden;rotatable=0;points=[[0,0.5],[1,0.5]];portConstraint=eastwest;whiteSpace=wrap;html=1;" vertex="1" parent="egIiD5W8o0YkJKsrxG2l-5">
          <mxGeometry y="80" width="140" height="26" as="geometry" />
        </mxCell>
        <mxCell id="egIiD5W8o0YkJKsrxG2l-10" value="+ anim_timer" style="text;strokeColor=none;fillColor=none;align=left;verticalAlign=top;spacingLeft=4;spacingRight=4;overflow=hidden;rotatable=0;points=[[0,0.5],[1,0.5]];portConstraint=eastwest;whiteSpace=wrap;html=1;" vertex="1" parent="egIiD5W8o0YkJKsrxG2l-5">
          <mxGeometry y="106" width="140" height="26" as="geometry" />
        </mxCell>
        <mxCell id="egIiD5W8o0YkJKsrxG2l-11" value="+ damage" style="text;strokeColor=none;fillColor=none;align=left;verticalAlign=top;spacingLeft=4;spacingRight=4;overflow=hidden;rotatable=0;points=[[0,0.5],[1,0.5]];portConstraint=eastwest;whiteSpace=wrap;html=1;" vertex="1" parent="egIiD5W8o0YkJKsrxG2l-5">
          <mxGeometry y="132" width="140" height="26" as="geometry" />
        </mxCell>
      </root>
    </mxGraphModel>
  </diagram>
  <diagram id="bXKDL4NjXw8nwwXvWejg" name="Pagina-2">
    <mxGraphModel dx="1426" dy="755" grid="1" gridSize="10" guides="1" tooltips="1" connect="1" arrows="1" fold="1" page="1" pageScale="1" pageWidth="1169" pageHeight="827" math="0" shadow="0">
      <root>
        <mxCell id="0" />
        <mxCell id="1" parent="0" />
        <mxCell id="09UIkTnFZzghDa49lmup-1" value="IDLE" style="rounded=1;whiteSpace=wrap;html=1;arcSize=40;fontColor=#000000;fillColor=#ffffc0;strokeColor=#ff0000;" vertex="1" parent="1">
          <mxGeometry x="520" y="170" width="120" height="40" as="geometry" />
        </mxCell>
        <mxCell id="09UIkTnFZzghDa49lmup-2" value="" style="edgeStyle=orthogonalEdgeStyle;html=1;verticalAlign=bottom;endArrow=open;endSize=8;strokeColor=#ff0000;rounded=0;" edge="1" source="09UIkTnFZzghDa49lmup-1" parent="1" target="09UIkTnFZzghDa49lmup-4">
          <mxGeometry relative="1" as="geometry">
            <mxPoint x="580" y="290" as="targetPoint" />
          </mxGeometry>
        </mxCell>
        <mxCell id="09UIkTnFZzghDa49lmup-3" value="the shot isn&#39;t drawn and isn&#39;t updated" style="text;html=1;align=center;verticalAlign=middle;whiteSpace=wrap;rounded=0;" vertex="1" parent="1">
          <mxGeometry x="670" y="170" width="120" height="30" as="geometry" />
        </mxCell>
        <mxCell id="09UIkTnFZzghDa49lmup-4" value="LAUNCH" style="rounded=1;whiteSpace=wrap;html=1;arcSize=40;fontColor=#000000;fillColor=#ffffc0;strokeColor=#ff0000;" vertex="1" parent="1">
          <mxGeometry x="520" y="280" width="120" height="40" as="geometry" />
        </mxCell>
        <mxCell id="09UIkTnFZzghDa49lmup-5" value="shot launch animation is played" style="text;html=1;align=center;verticalAlign=middle;whiteSpace=wrap;rounded=0;" vertex="1" parent="1">
          <mxGeometry x="675" y="280" width="110" height="30" as="geometry" />
        </mxCell>
        <mxCell id="09UIkTnFZzghDa49lmup-6" value="fire buttton pressed" style="text;html=1;align=center;verticalAlign=middle;whiteSpace=wrap;rounded=0;" vertex="1" parent="1">
          <mxGeometry x="590" y="230" width="60" height="30" as="geometry" />
        </mxCell>
        <mxCell id="09UIkTnFZzghDa49lmup-7" value="ACTIVE" style="rounded=1;whiteSpace=wrap;html=1;arcSize=40;fontColor=#000000;fillColor=#ffffc0;strokeColor=#ff0000;" vertex="1" parent="1">
          <mxGeometry x="520" y="400" width="120" height="40" as="geometry" />
        </mxCell>
        <mxCell id="09UIkTnFZzghDa49lmup-9" value="" style="edgeStyle=orthogonalEdgeStyle;html=1;verticalAlign=bottom;endArrow=open;endSize=8;strokeColor=#ff0000;rounded=0;" edge="1" parent="1" source="09UIkTnFZzghDa49lmup-4" target="09UIkTnFZzghDa49lmup-7">
          <mxGeometry relative="1" as="geometry">
            <mxPoint x="770" y="455" as="targetPoint" />
            <mxPoint x="770" y="385" as="sourcePoint" />
          </mxGeometry>
        </mxCell>
        <mxCell id="09UIkTnFZzghDa49lmup-10" value="animation finished" style="text;html=1;align=center;verticalAlign=middle;whiteSpace=wrap;rounded=0;" vertex="1" parent="1">
          <mxGeometry x="590" y="350" width="60" height="30" as="geometry" />
        </mxCell>
        <mxCell id="09UIkTnFZzghDa49lmup-11" value="shot is drawn and its position updated; can collide" style="text;html=1;align=center;verticalAlign=middle;whiteSpace=wrap;rounded=0;" vertex="1" parent="1">
          <mxGeometry x="665" y="405" width="120" height="30" as="geometry" />
        </mxCell>
        <mxCell id="09UIkTnFZzghDa49lmup-12" value="HIT" style="rounded=1;whiteSpace=wrap;html=1;arcSize=40;fontColor=#000000;fillColor=#ffffc0;strokeColor=#ff0000;" vertex="1" parent="1">
          <mxGeometry x="520" y="520" width="120" height="40" as="geometry" />
        </mxCell>
        <mxCell id="09UIkTnFZzghDa49lmup-13" value="" style="edgeStyle=orthogonalEdgeStyle;html=1;verticalAlign=bottom;endArrow=open;endSize=8;strokeColor=#ff0000;rounded=0;" edge="1" parent="1" source="09UIkTnFZzghDa49lmup-7" target="09UIkTnFZzghDa49lmup-12">
          <mxGeometry relative="1" as="geometry">
            <mxPoint x="579.5" y="530" as="targetPoint" />
            <mxPoint x="579.5" y="450" as="sourcePoint" />
          </mxGeometry>
        </mxCell>
        <mxCell id="09UIkTnFZzghDa49lmup-14" value="collides with an enemy" style="text;html=1;align=center;verticalAlign=middle;whiteSpace=wrap;rounded=0;" vertex="1" parent="1">
          <mxGeometry x="590" y="470" width="60" height="30" as="geometry" />
        </mxCell>
        <mxCell id="09UIkTnFZzghDa49lmup-15" value="shot hit animation is played" style="text;html=1;align=center;verticalAlign=middle;whiteSpace=wrap;rounded=0;" vertex="1" parent="1">
          <mxGeometry x="670" y="525" width="110" height="30" as="geometry" />
        </mxCell>
        <mxCell id="09UIkTnFZzghDa49lmup-16" value="" style="edgeStyle=orthogonalEdgeStyle;html=1;verticalAlign=bottom;endArrow=open;endSize=8;strokeColor=#ff0000;rounded=0;" edge="1" parent="1" source="09UIkTnFZzghDa49lmup-12" target="09UIkTnFZzghDa49lmup-1">
          <mxGeometry relative="1" as="geometry">
            <mxPoint x="450" y="530" as="targetPoint" />
            <mxPoint x="450" y="450" as="sourcePoint" />
            <Array as="points">
              <mxPoint x="440" y="540" />
              <mxPoint x="440" y="190" />
            </Array>
          </mxGeometry>
        </mxCell>
        <mxCell id="09UIkTnFZzghDa49lmup-17" value="hit animation finished" style="text;html=1;align=center;verticalAlign=middle;whiteSpace=wrap;rounded=0;" vertex="1" parent="1">
          <mxGeometry x="370" y="350" width="60" height="30" as="geometry" />
        </mxCell>
      </root>
    </mxGraphModel>
  </diagram>
  <diagram id="aigJ0JXH3hSDuFhPFgaG" name="Pagina-3">
    <mxGraphModel dx="1426" dy="755" grid="1" gridSize="10" guides="1" tooltips="1" connect="1" arrows="1" fold="1" page="1" pageScale="1" pageWidth="1169" pageHeight="827" math="0" shadow="0">
      <root>
        <mxCell id="0" />
        <mxCell id="1" parent="0" />
        <mxCell id="J5ANI-pC5c6ka9lNbi-j-4" value="fire command" style="edgeStyle=orthogonalEdgeStyle;rounded=0;orthogonalLoop=1;jettySize=auto;html=1;" edge="1" parent="1" source="J5ANI-pC5c6ka9lNbi-j-2" target="J5ANI-pC5c6ka9lNbi-j-3">
          <mxGeometry relative="1" as="geometry" />
        </mxCell>
        <mxCell id="J5ANI-pC5c6ka9lNbi-j-2" value="&lt;div style=&quot;color: rgb(59, 59, 59); background-color: rgb(255, 255, 255); font-family: Consolas, &amp;quot;Courier New&amp;quot;, monospace; line-height: 19px; white-space: pre;&quot;&gt;&lt;font&gt;enemies_execute_command&lt;/font&gt;&lt;/div&gt;" style="rounded=0;whiteSpace=wrap;html=1;" vertex="1" parent="1">
          <mxGeometry x="440" y="100" width="200" height="60" as="geometry" />
        </mxCell>
        <mxCell id="J5ANI-pC5c6ka9lNbi-j-3" value="&lt;div style=&quot;color: rgb(59, 59, 59); background-color: rgb(255, 255, 255); font-family: Consolas, &amp;quot;Courier New&amp;quot;, monospace; line-height: 19px; white-space: pre;&quot;&gt;&lt;div style=&quot;line-height: 19px;&quot;&gt;&lt;font&gt;enemy_shot_create&lt;/font&gt;&lt;/div&gt;&lt;/div&gt;" style="rounded=0;whiteSpace=wrap;html=1;" vertex="1" parent="1">
          <mxGeometry x="440" y="260" width="200" height="60" as="geometry" />
        </mxCell>
      </root>
    </mxGraphModel>
  </diagram>
  <diagram id="Q3bfMyxePyY_CZmskzgQ" name="Pagina-4">
    <mxGraphModel dx="1426" dy="755" grid="1" gridSize="10" guides="1" tooltips="1" connect="1" arrows="1" fold="1" page="1" pageScale="1" pageWidth="1169" pageHeight="827" math="0" shadow="0">
      <root>
        <mxCell id="0" />
        <mxCell id="1" parent="0" />
        <mxCell id="OX-f0ARU9nLE4UROVPnx-1" value="Shot" style="swimlane;fontStyle=0;childLayout=stackLayout;horizontal=1;startSize=26;fillColor=none;horizontalStack=0;resizeParent=1;resizeParentMax=0;resizeLast=0;collapsible=1;marginBottom=0;whiteSpace=wrap;html=1;" vertex="1" parent="1">
          <mxGeometry x="510" y="330" width="140" height="104" as="geometry" />
        </mxCell>
        <mxCell id="OX-f0ARU9nLE4UROVPnx-2" value="+ enemy_shot_create" style="text;strokeColor=none;fillColor=none;align=left;verticalAlign=top;spacingLeft=4;spacingRight=4;overflow=hidden;rotatable=0;points=[[0,0.5],[1,0.5]];portConstraint=eastwest;whiteSpace=wrap;html=1;" vertex="1" parent="OX-f0ARU9nLE4UROVPnx-1">
          <mxGeometry y="26" width="140" height="26" as="geometry" />
        </mxCell>
        <mxCell id="OX-f0ARU9nLE4UROVPnx-3" value="+ enemy_shots_draw" style="text;strokeColor=none;fillColor=none;align=left;verticalAlign=top;spacingLeft=4;spacingRight=4;overflow=hidden;rotatable=0;points=[[0,0.5],[1,0.5]];portConstraint=eastwest;whiteSpace=wrap;html=1;" vertex="1" parent="OX-f0ARU9nLE4UROVPnx-1">
          <mxGeometry y="52" width="140" height="26" as="geometry" />
        </mxCell>
        <mxCell id="OX-f0ARU9nLE4UROVPnx-4" value="+ enemy_shots_update" style="text;strokeColor=none;fillColor=none;align=left;verticalAlign=top;spacingLeft=4;spacingRight=4;overflow=hidden;rotatable=0;points=[[0,0.5],[1,0.5]];portConstraint=eastwest;whiteSpace=wrap;html=1;" vertex="1" parent="OX-f0ARU9nLE4UROVPnx-1">
          <mxGeometry y="78" width="140" height="26" as="geometry" />
        </mxCell>
      </root>
    </mxGraphModel>
  </diagram>
</mxfile>
